<svg width="233" height="198" fill="none" xmlns="http://www.w3.org/2000/svg"><g clip-path="url(#clip0)" fill="#1F337A"><path d="M135.844 34.132a34.693 34.693 0 00-2.977-.333v1.675a2.48 2.48 0 11-4.961 0V33.8a35.965 35.965 0 00-21.045 8.696l1.084 1.17a2.466 2.466 0 01-.373 3.808c-.409.27-.89.413-1.38.408a2.5 2.5 0 01-1.754-.752l-1.173-1.224a35.414 35.414 0 00-8.696 20.849h1.675a2.48 2.48 0 010 4.96H94.57a34.734 34.734 0 008.702 21.06l1.179-1.07a2.492 2.492 0 013.541 3.509l-1.129 1.172a35.973 35.973 0 0021.044 8.698v-1.676a2.481 2.481 0 014.961 0v1.676a35.417 35.417 0 002.977-.331v-6.276a31.495 31.495 0 01-5.574.52 29.554 29.554 0 11-.012-59.11 31.62 31.62 0 015.586.52v-6.274z"/><path d="M120.465 66.597v6.11h7.441v-6.11a3.72 3.72 0 10-7.441 0zm18.848 121.84a11.925 11.925 0 01-11.903-11.976v-11.977H79.785v11.977a11.922 11.922 0 01-11.9 11.976 11.544 11.544 0 00-11.428 9.286h94.285a11.55 11.55 0 00-11.429-9.286zM-.086 150.265a9.272 9.272 0 002.769 6.594 9.27 9.27 0 006.636 2.664h191.389c5.198 0 9.55-4.06 9.55-9.258V133.23H-.086v17.035zm103.684-11.073a7.234 7.234 0 016.681 4.464 7.233 7.233 0 01-9.449 9.448 7.23 7.23 0 01-4.464-6.681 7.24 7.24 0 017.232-7.231z"/><path d="M103.6 148.694a2.27 2.27 0 100-4.54 2.27 2.27 0 000 4.54zM226.398 32.027h-85.593v7.938h91.777v-1.956a5.912 5.912 0 00-1.812-4.272 6.057 6.057 0 00-4.372-1.71z"/><path d="M196.367 27.066V12.184H13.309V128.27h183.058v-16.372h-55.562v4.131a2.481 2.481 0 01-4.961 0v-6.277a43.31 43.31 0 01-5.574.387 40.702 40.702 0 01-28.78-11.916 40.694 40.694 0 01-8.83-44.351 40.701 40.701 0 0137.598-25.13c1.868.009 3.734.138 5.586.386v-5.835a2.48 2.48 0 114.961 0v3.773h55.562zM85.353 55.344a2.48 2.48 0 01-2.48 2.48h-9.438a2.48 2.48 0 110-4.96h9.44a2.48 2.48 0 012.478 2.48zm0 30.758a2.48 2.48 0 01-2.48 2.48h-3.42a2.48 2.48 0 110-4.96h3.42a2.48 2.48 0 012.48 2.48zm-8.848-15.38a2.48 2.48 0 01-2.48 2.481h-5.65a2.48 2.48 0 110-4.96h5.651a2.48 2.48 0 012.479 2.48zm-14.896-32.74H80.15a2.48 2.48 0 110 4.96H61.609a2.48 2.48 0 110-4.96zm-1.645 14.882h5.24a2.48 2.48 0 010 4.961h-5.24a2.48 2.48 0 110-4.96zM48.062 37.98h5.24a2.48 2.48 0 110 4.961h-5.24a2.48 2.48 0 110-4.96zM36.16 52.864h15.497a2.48 2.48 0 110 4.961H36.16a2.48 2.48 0 110-4.96zM24.223 65.816a2.48 2.48 0 01-4.961 0V35.087a2.48 2.48 0 014.96 0v30.73zm0-41.14a2.48 2.48 0 01-4.961 0v-2.074a2.48 2.48 0 014.96 0v2.075zm8.461 48.527h-5.232a2.48 2.48 0 110-4.96h5.232a2.48 2.48 0 110 4.96zm19.794 30.758H48.06a2.478 2.478 0 01-2.48-2.481A2.481 2.481 0 0148.06 99h4.418a2.48 2.48 0 010 4.961zm.823-15.379H37.805a2.48 2.48 0 110-4.96h15.498a2.48 2.48 0 110 4.96H53.3zm2.441-15.379H42.794a2.48 2.48 0 110-4.96h12.948a2.48 2.48 0 110 4.96zm12.437 30.758h-7.394a2.478 2.478 0 01-2.48-2.481 2.481 2.481 0 012.48-2.48h7.392a2.48 2.48 0 010 4.961h.002zm-6.572-15.379a2.48 2.48 0 110-4.96H72.87a2.48 2.48 0 110 4.96H61.607zm32.755 9.922a2.48 2.48 0 110 4.961H76.408a2.478 2.478 0 01-2.48-2.481 2.481 2.481 0 012.48-2.48h17.954zm-2.15-56.059H88.38a2.48 2.48 0 110-4.96h3.833a2.48 2.48 0 110 4.96z"/><path d="M210.258 27.066V9.69a9.535 9.535 0 00-9.55-9.413H9.319A9.407 9.407 0 00-.086 9.69v118.58h8.434V9.591c0-1.37.864-2.368 2.235-2.368H198.97a2.29 2.29 0 012.202 1.45c.115.292.168.605.156.918v17.475h8.93z"/><path d="M135.844 45.471a26.26 26.26 0 00-5.574-.627 24.599 24.599 0 00-17.393 7.2 24.587 24.587 0 00-7.208 17.388 24.58 24.58 0 007.2 17.393 24.595 24.595 0 0017.389 7.208 26.35 26.35 0 005.586-.626v-15.74h-15.379v.726a2.48 2.48 0 11-4.961 0v-1.221h-1.637a2.48 2.48 0 110-4.961h1.637v-2.977h-2.183a2.48 2.48 0 110-4.96h2.669a8.772 8.772 0 018.229-6.155 8.523 8.523 0 016.133 2.449 9.024 9.024 0 015.492-2.527v-12.57zm74.414 66.427h-8.93v16.372h8.93v-16.372z"/><path d="M132.867 72.707h2.977v-9.674a3.383 3.383 0 00-2.977 3.565v6.109zm99.715-27.781h-91.777v12.898h91.777V44.926zM194.64 95.527h19.019a5.953 5.953 0 000-11.906H194.64a5.955 5.955 0 00-5.953 5.953 5.954 5.954 0 005.953 5.953z"/><path d="M140.805 106.938h85.824v.09a5.847 5.847 0 005.953-6.093v-38.15h-91.777v44.153zm19.33-10.419h-2.857a2.48 2.48 0 110-4.96h2.857a2.48 2.48 0 110 4.96zM194.64 78.66h19.019a10.914 10.914 0 010 21.828H194.64a10.915 10.915 0 110-21.828zm-21.695 4.465h1.941a2.48 2.48 0 110 4.96h-1.94a2.48 2.48 0 110-4.96h-.001zm-4.38 8.434h6.321a2.48 2.48 0 110 4.96h-6.321a2.48 2.48 0 110-4.96zm-22.361-8.434h17.871a2.48 2.48 0 110 4.96h-17.871a2.48 2.48 0 110-4.96zm0 8.434h2.018a2.48 2.48 0 110 4.96h-2.018a2.48 2.48 0 110-4.96z"/></g><defs><clipPath id="clip0"><path fill="#fff" d="M0 0h233v198H0z"/></clipPath></defs></svg>