<svg width="40" height="32" fill="none" xmlns="http://www.w3.org/2000/svg"><path fill-rule="evenodd" clip-rule="evenodd" d="M37.6.8H2.4A2.403 2.403 0 000 3.2v25.6a2.403 2.403 0 002.4 2.4h4l4.08-5.44a2.4 2.4 0 011.92-.96h15.2a2.4 2.4 0 011.92.96l4.08 5.44h4a2.403 2.403 0 002.4-2.4V3.2A2.403 2.403 0 0037.6.8zM7.2 21.6H4A.8.8 0 014 20h3.2a.8.8 0 010 1.6zM4 15.2h3.2a.8.8 0 000-1.6H4a.8.8 0 100 1.6zm3.2-6.4H4a.8.8 0 110-1.6h3.2a.8.8 0 110 1.6zm20 12.8a1.6 1.6 0 001.6-1.6V8.8a1.6 1.6 0 00-1.6-1.6H12.8a1.6 1.6 0 00-1.6 1.6V20a1.6 1.6 0 001.6 1.6h14.4zm8.8 0h-3.2a.8.8 0 010-1.6H36a.8.8 0 010 1.6zm-3.2-6.4H36a.8.8 0 000-1.6h-3.2a.8.8 0 100 1.6zM36 8.8h-3.2a.8.8 0 010-1.6H36a.8.8 0 010 1.6zm-5.6 20.8l-2.16-2.88a.803.803 0 00-.64-.32H12.4a.803.803 0 00-.64.32L9.6 29.6h20.8z" fill="#1F337A"/></svg>