<svg width="44" height="44" fill="none" xmlns="http://www.w3.org/2000/svg"><path d="M15.555 15.63h2.578v10.313h-2.578V15.631zm-5.157 0h2.579v10.313h-2.579V15.631zm10.312 0h2.58v10.313h-2.58V15.631zm5.157 0h2.578v10.313h-2.578V15.631zm5.156 0h2.579v10.313h-2.579V15.631zm5.157-1.288H7.82V9.186h28.36v5.156zm0 18.047H7.82v-5.157h28.36v5.157zm1.375 10.312H6.445A6.453 6.453 0 010 36.256v-1.29h44v1.29a6.453 6.453 0 01-6.445 6.445zM7.82 16.92H5.242v-2.578H2.664v18.047h2.578v-7.735H7.82V16.92zm30.938-2.578v2.578H36.18v7.734h2.578v7.735h2.578V14.342h-2.578zm-6.141-7.735L22 1.3 11.383 6.607h21.234z" fill="#1F337A"/></svg>