<svg width="39" height="26" fill="none" xmlns="http://www.w3.org/2000/svg"><path fill-rule="evenodd" clip-rule="evenodd" d="M0 .8A.8.8 0 01.8 0h10.4l2.103 2.103A34.306 34.306 0 0119.2 1.6c7.986 0 14.83 2.642 17.724 6.4H1.476A12.754 12.754 0 015.34 4.809L3.2 1.6H.8A.8.8 0 010 .8zm37.866 13.6A5.971 5.971 0 0038.4 12a5.97 5.97 0 00-.534-2.4H.534a5.657 5.657 0 000 4.8h37.332zm-18.666 8c7.986 0 14.83-2.642 17.724-6.4H1.476a12.755 12.755 0 003.863 3.191L3.2 22.4H.8a.8.8 0 000 1.6h10.4l2.103-2.103a34.38 34.38 0 005.897.503zM6.777 19.92L5.123 22.4h5.414l.895-.895a25.21 25.21 0 01-4.655-1.586zM20 24h6.4a.8.8 0 010 1.6H20a.8.8 0 010-1.6zM6.777 4.08L5.123 1.6h5.414l.895.894c-1.6.376-3.159.908-4.655 1.587z" fill="#1F337A"/></svg>