<svg width="40" height="40" fill="none" xmlns="http://www.w3.org/2000/svg"><path d="M20 0C12.416 0 6.25 6.168 6.25 13.75S12.416 27.5 20 27.5c7.58 0 13.75-6.168 13.75-13.75S27.58 0 20 0zm7.227 11.805l-2.375 2.975.26 3.888c.03.432-.168.85-.525 1.102a1.26 1.26 0 01-1.213.13L20 18.468 16.627 19.9c-.4.17-.86.123-1.213-.13a1.255 1.255 0 01-.525-1.102l.26-3.888-2.375-2.975a1.251 1.251 0 01.66-1.99l3.545-.928 1.945-3.275c.45-.76 1.7-.76 2.148 0l1.945 3.275 3.547.928a1.253 1.253 0 01.663 1.99z" fill="#1F337A"/><path d="M5.937 21.858L.167 31.875c-.253.44-.215.987.092 1.388.308.4.825.58 1.315.445l7.34-1.973 1.953 7.34c.13.487.542.85 1.042.917.055.006.113.008.165.008a1.25 1.25 0 001.083-.625l5.457-9.445c-5.422-.46-10.082-3.593-12.677-8.072zm33.897 10.017l-5.772-10.017c-2.593 4.48-7.255 7.612-12.678 8.072l5.458 9.445a1.25 1.25 0 002.29-.303l1.952-7.34 7.34 1.973a1.244 1.244 0 001.315-.445 1.25 1.25 0 00.095-1.385z" fill="#1F337A"/></svg>