<svg width="40" height="40" fill="none" xmlns="http://www.w3.org/2000/svg"><path d="M32.969 0v2.344h3.026l-3.873 3.864a42.856 42.856 0 01-13.961 9.313A42.856 42.856 0 011.7 18.791H0v2.344h1.7a45.19 45.19 0 0017.357-3.448 45.19 45.19 0 0014.72-9.82l3.88-3.87V7.03H40V0h-7.031zM12.552 35.313V23.457l-1.398.275a48.853 48.853 0 01-7.68.886l-1.13.04v10.654h10.208zm12.552 0v-16.58l-1.69.837a49.502 49.502 0 01-7.682 3.028l-.836.25v12.465h10.208zm12.552 0V9.017l-1.986 1.917a48.91 48.91 0 01-7.68 6.058l-.542.345v17.976h10.208zM0 37.656h40V40H0v-2.344zM9.375 2.344h12.383v2.344H9.375V2.344zm-7.031 0H7.03v2.344H2.344V2.344zm0 4.687h12.383v2.344H2.344V7.031z" fill="#1F337A"/><path d="M17.07 7.031h4.688v2.344H17.07V7.031zM2.344 11.719h9.375v2.344H2.344v-2.344z" fill="#1F337A"/></svg>