<svg width="97" height="27" fill="none" xmlns="http://www.w3.org/2000/svg"><path d="M7.566 22.26c-1.248 0-2.349-.234-3.302-.702a5.314 5.314 0 01-2.21-2.028c-.52-.901-.806-1.985-.858-3.25-.017-.26-.026-.598-.026-1.014 0-.433.009-.789.026-1.066.052-1.265.338-2.34.858-3.224a5.264 5.264 0 012.21-2.054c.953-.468 2.054-.702 3.302-.702 1.11 0 2.054.156 2.834.468.78.295 1.421.685 1.924 1.17.503.468.875.962 1.118 1.482.26.503.399.962.416 1.378a.525.525 0 01-.182.468.656.656 0 01-.442.156h-2.288a.629.629 0 01-.416-.13 1.514 1.514 0 01-.26-.39c-.26-.693-.607-1.179-1.04-1.456-.416-.295-.953-.442-1.612-.442-.867 0-1.56.277-2.08.832-.503.537-.771 1.395-.806 2.574a15.907 15.907 0 000 1.82c.035 1.196.303 2.063.806 2.6.52.537 1.213.806 2.08.806.676 0 1.222-.139 1.638-.416.416-.295.754-.789 1.014-1.482.087-.173.173-.303.26-.39a.629.629 0 01.416-.13h2.288a.6.6 0 01.442.182c.139.104.2.251.182.442-.017.312-.104.667-.26 1.066-.139.381-.373.78-.702 1.196-.312.399-.71.771-1.196 1.118-.485.33-1.075.598-1.768.806-.676.208-1.465.312-2.366.312zm9.628-.26a.602.602 0 01-.442-.182.602.602 0 01-.182-.442V9.13c0-.19.06-.347.181-.468a.602.602 0 01.442-.182H19.3c.174 0 .321.06.442.182a.593.593 0 01.209.468v1.066c.398-.555.91-.98 1.534-1.274.64-.295 1.377-.442 2.21-.442h1.066c.19 0 .337.06.441.182a.602.602 0 01.183.442v1.872c0 .173-.061.32-.183.442-.104.121-.25.182-.442.182h-2.027c-.832 0-1.482.234-1.95.702-.451.45-.677 1.092-.677 1.924v7.15c0 .173-.06.32-.181.442a.634.634 0 01-.468.182h-2.262zm12.661 4.94a.499.499 0 01-.364-.156.499.499 0 01-.156-.364v-.208c.018-.052.052-.121.104-.208l2.028-4.81-4.992-11.778c-.069-.173-.104-.295-.104-.364a.633.633 0 01.182-.39.493.493 0 01.39-.182h2.106c.208 0 .364.052.468.156.104.104.182.217.234.338l3.458 8.502 3.562-8.502a.792.792 0 01.234-.338c.104-.104.26-.156.468-.156h2.08c.139 0 .26.052.364.156A.468.468 0 0140.1 9a1.2 1.2 0 01-.104.416l-7.358 17.03a1.03 1.03 0 01-.26.338c-.104.104-.26.156-.468.156h-2.054zm13.136 0a.602.602 0 01-.442-.182.602.602 0 01-.182-.442V9.104a.6.6 0 01.182-.442.602.602 0 01.442-.182h2.054c.19 0 .338.06.442.182a.602.602 0 01.182.442v1.04c.416-.555.962-1.014 1.638-1.378.676-.364 1.517-.546 2.522-.546.919 0 1.716.147 2.392.442.676.295 1.24.72 1.69 1.274.45.537.797 1.179 1.04 1.924.243.745.381 1.569.416 2.47a16.903 16.903 0 010 1.846 8.308 8.308 0 01-.39 2.418 5.79 5.79 0 01-1.066 1.924 4.79 4.79 0 01-1.69 1.274c-.676.312-1.473.468-2.392.468-.936 0-1.733-.165-2.392-.494a4.737 4.737 0 01-1.612-1.352v5.902a.6.6 0 01-.182.442c-.104.121-.251.182-.442.182h-2.21zm5.876-7.462c.745 0 1.326-.156 1.742-.468.416-.33.72-.754.91-1.274.19-.52.303-1.092.338-1.716.017-.52.017-1.04 0-1.56a5.915 5.915 0 00-.338-1.716 2.667 2.667 0 00-.91-1.248c-.416-.33-.997-.494-1.742-.494-.71 0-1.291.165-1.742.494-.433.33-.754.754-.962 1.274a5.345 5.345 0 00-.338 1.56 19.332 19.332 0 000 2.002c.017.52.139 1.023.364 1.508.225.468.555.858.988 1.17.433.312.997.468 1.69.468zM64.32 22c-1.04 0-1.915-.182-2.626-.546a3.486 3.486 0 01-1.586-1.612c-.346-.728-.52-1.63-.52-2.704v-5.902h-2.054a.602.602 0 01-.442-.182.634.634 0 01-.182-.468V9.104a.6.6 0 01.182-.442.602.602 0 01.442-.182h2.054V4.164c0-.173.052-.32.156-.442a.634.634 0 01.468-.182h2.106a.6.6 0 01.442.182.602.602 0 01.182.442V8.48h3.25a.6.6 0 01.442.182.602.602 0 01.182.442v1.482c0 .19-.06.347-.182.468a.602.602 0 01-.442.182h-3.25v5.642c0 .71.121 1.265.364 1.664.26.399.702.598 1.326.598h1.794a.6.6 0 01.442.182.602.602 0 01.182.442v1.612a.6.6 0 01-.182.442.602.602 0 01-.442.182H64.32zm11.017.26c-1.387 0-2.557-.243-3.51-.728a5.145 5.145 0 01-2.158-2.054c-.486-.884-.763-1.915-.832-3.094a21.175 21.175 0 01-.026-1.144c0-.45.008-.832.026-1.144.069-1.196.355-2.227.858-3.094a5.315 5.315 0 012.184-2.054c.953-.485 2.106-.728 3.458-.728 1.352 0 2.496.243 3.432.728.953.485 1.681 1.17 2.184 2.054.52.867.814 1.898.884 3.094.017.312.026.693.026 1.144 0 .45-.009.832-.026 1.144-.07 1.179-.356 2.21-.858 3.094-.486.884-1.205 1.569-2.158 2.054-.936.485-2.098.728-3.484.728zm0-2.574c.918 0 1.629-.286 2.132-.858.502-.59.78-1.447.832-2.574.017-.26.026-.598.026-1.014 0-.416-.009-.754-.026-1.014-.052-1.127-.33-1.976-.832-2.548-.503-.59-1.214-.884-2.132-.884-.919 0-1.63.295-2.132.884-.503.572-.78 1.421-.832 2.548-.018.26-.026.598-.026 1.014 0 .416.008.754.026 1.014.052 1.127.329 1.985.832 2.574.502.572 1.213.858 2.132.858zm14.528 2.574c-1.04 0-1.932-.121-2.678-.364-.728-.243-1.326-.546-1.794-.91-.468-.364-.814-.728-1.04-1.092-.225-.364-.346-.667-.364-.91-.017-.19.035-.338.156-.442a.662.662 0 01.442-.182h2.054c.07 0 .13.009.182.026a.63.63 0 01.208.156c.226.19.46.39.702.598.26.208.564.39.91.546.347.139.78.208 1.3.208.676 0 1.24-.13 1.69-.39.468-.277.702-.667.702-1.17 0-.364-.104-.659-.312-.884-.19-.225-.554-.425-1.092-.598-.537-.19-1.3-.39-2.288-.598-.97-.225-1.776-.511-2.418-.858-.641-.347-1.118-.78-1.43-1.3-.312-.52-.468-1.127-.468-1.82 0-.676.2-1.317.598-1.924.416-.624 1.023-1.135 1.82-1.534.815-.399 1.82-.598 3.016-.598.936 0 1.751.121 2.444.364.694.225 1.266.511 1.716.858.468.347.824.702 1.066 1.066.243.347.373.65.39.91a.556.556 0 01-.156.468.621.621 0 01-.416.156h-1.924a.516.516 0 01-.234-.052 1.374 1.374 0 01-.208-.13 22.53 22.53 0 00-.624-.546 2.833 2.833 0 00-.832-.52c-.312-.139-.728-.208-1.248-.208-.658 0-1.161.147-1.508.442-.346.277-.52.633-.52 1.066 0 .295.078.555.234.78.174.208.512.407 1.014.598.503.19 1.266.39 2.288.598 1.162.208 2.08.52 2.756.936.694.399 1.179.867 1.456 1.404.295.52.442 1.1.442 1.742 0 .78-.234 1.482-.702 2.106-.45.624-1.126 1.118-2.028 1.482-.884.347-1.984.52-3.302.52z" fill="#FAFAFA"/></svg>