<svg width="20" height="20" fill="none" xmlns="http://www.w3.org/2000/svg"><g clip-path="url(#clip0)"><path d="M17.068 2.93a9.99 9.99 0 00-14.135 0C-.208 6.07-.802 10.74 1.055 14.46l-1.03 4.53a.821.821 0 00.983.982l4.529-1.03c6.584 3.288 14.458-1.471 14.458-8.944a9.93 9.93 0 00-2.927-7.067zm-4.983 9.556H5.83a.821.821 0 010-1.642h6.255a.82.82 0 110 1.642zM14.17 9.15H5.83a.82.82 0 110-1.642h8.34a.821.821 0 110 1.642z" fill="#1F337A"/></g><defs><clipPath id="clip0"><path fill="#fff" d="M0 0h20v20H0z"/></clipPath></defs></svg>