<svg width="20" height="20" fill="none" xmlns="http://www.w3.org/2000/svg"><g clip-path="url(#clip0)" fill="#1F337A"><path d="M13 2.383l-1.76 2.58a1.465 1.465 0 11-.968-.66l1.622-2.378A6.425 6.425 0 0010 1.64c-.659 0-1.295.1-1.894.284L6.968.255A.586.586 0 006 .917l1 1.467a6.451 6.451 0 00-3.445 5.703v5.469A6.453 6.453 0 0010 20a6.453 6.453 0 006.445-6.445v-5.47A6.451 6.451 0 0013 2.384zm-.266 13.125H7.266a.586.586 0 110-1.172h5.468a.586.586 0 010 1.172zm0-2.344H7.266a.586.586 0 010-1.172h5.468a.586.586 0 110 1.172zm0-2.344H7.266a.586.586 0 110-1.172h5.468a.586.586 0 010 1.172z"/><path d="M14 .916a.586.586 0 00-.968-.66l-1.138 1.669A6.41 6.41 0 0113 2.383l1-1.467z"/></g><defs><clipPath id="clip0"><path fill="#fff" d="M0 0h20v20H0z"/></clipPath></defs></svg>